<svg width="123" height="43" viewBox="0 0 123 43" fill="none" xmlns="http://www.w3.org/2000/svg">
<path d="M73.2722 8.00002H72.1172V4.67802C72.1172 3.85302 71.6992 3.57802 71.0502 3.57802C70.4562 3.57802 69.9502 3.93002 69.6862 4.29302V8.00002H68.5312V2.68702H69.6862V3.41302C70.0382 2.99502 70.7203 2.55502 71.5563 2.55502C72.7003 2.55502 73.2722 3.17102 73.2722 4.26002V8.00002Z" fill="#0A0A0A"/>
<path d="M64.6235 8.13202C62.9405 8.13202 61.8955 6.86702 61.8955 5.33802C61.8955 3.82002 62.9405 2.55502 64.6235 2.55502C66.3285 2.55502 67.3625 3.82002 67.3625 5.33802C67.3625 6.86702 66.3285 8.13202 64.6235 8.13202ZM64.6235 7.10902C65.6135 7.10902 66.1635 6.28402 66.1635 5.33802C66.1635 4.40302 65.6135 3.57802 64.6235 3.57802C63.6445 3.57802 63.0945 4.40302 63.0945 5.33802C63.0945 6.28402 63.6445 7.10902 64.6235 7.10902Z" fill="#0A0A0A"/>
<path d="M60.1442 1.80701C59.7592 1.80701 59.4292 1.48801 59.4292 1.09201C59.4292 0.696014 59.7592 0.377014 60.1442 0.377014C60.5402 0.377014 60.8592 0.696014 60.8592 1.09201C60.8592 1.48801 60.5402 1.80701 60.1442 1.80701ZM60.7272 8.00001H59.5722V2.68701H60.7272V8.00001Z" fill="#0A0A0A"/>
<path d="M53.9216 7.30702L54.4496 6.47102C54.8236 6.85602 55.5606 7.21902 56.2536 7.21902C56.9466 7.21902 57.2986 6.96602 57.2986 6.57002C57.2986 6.10802 56.7376 5.94302 56.0886 5.80002C55.1756 5.60202 54.0866 5.36002 54.0866 4.17202C54.0866 3.30302 54.8346 2.55502 56.1766 2.55502C57.0786 2.55502 57.7606 2.87402 58.2446 3.30302L57.7606 4.11702C57.4416 3.75402 56.8476 3.47902 56.1876 3.47902C55.5826 3.47902 55.1976 3.69902 55.1976 4.07302C55.1976 4.48002 55.7256 4.62302 56.3526 4.76602C57.2766 4.96402 58.4096 5.22802 58.4096 6.48202C58.4096 7.41702 57.6286 8.13202 56.1986 8.13202C55.2966 8.13202 54.4716 7.84602 53.9216 7.30702Z" fill="#0A0A0A"/>
<path d="M51.7253 8.00001H50.5703V2.68701H51.7253V3.46801C52.1213 2.96201 52.7593 2.56601 53.4523 2.56601V3.71001C53.3533 3.68801 53.2323 3.67701 53.0893 3.67701C52.6053 3.67701 51.9563 4.00701 51.7253 4.38101V8.00001Z" fill="#0A0A0A"/>
<path d="M44.1172 5.33802C44.1172 3.79802 45.2392 2.55502 46.8122 2.55502C48.4072 2.55502 49.4302 3.77602 49.4302 5.44802V5.72302H45.3272C45.4152 6.52602 46.0202 7.18602 47.0212 7.18602C47.5382 7.18602 48.1542 6.97702 48.5282 6.60302L49.0562 7.36202C48.5282 7.86802 47.7472 8.13202 46.9002 8.13202C45.3052 8.13202 44.1172 7.02102 44.1172 5.33802ZM46.8122 3.50102C45.8222 3.50102 45.3712 4.26002 45.3162 4.90902H48.3082C48.2862 4.28202 47.8572 3.50102 46.8122 3.50102Z" fill="#0A0A0A"/>
<path d="M41.555 8.00001H40.312L38.145 2.68701H39.377L40.928 6.66901L42.479 2.68701H43.722L41.555 8.00001Z" fill="#0A0A0A"/>
<path d="M34.1722 8.13202C33.2812 8.13202 32.8082 7.64802 32.8082 6.76802V3.69902H31.9282V2.68702H32.8082V1.23502H33.9632V2.68702H35.0412V3.69902H33.9632V6.48202C33.9632 6.84502 34.1392 7.10902 34.4692 7.10902C34.6892 7.10902 34.8982 7.02102 34.9862 6.92202L35.2612 7.79102C35.0522 7.98902 34.7112 8.13202 34.1722 8.13202Z" fill="#0A0A0A"/>
<path d="M26.124 5.33802C26.124 3.79802 27.246 2.55502 28.819 2.55502C30.414 2.55502 31.437 3.77602 31.437 5.44802V5.72302H27.334C27.422 6.52602 28.027 7.18602 29.028 7.18602C29.545 7.18602 30.161 6.97702 30.535 6.60302L31.063 7.36202C30.535 7.86802 29.754 8.13202 28.907 8.13202C27.312 8.13202 26.124 7.02102 26.124 5.33802ZM28.819 3.50102C27.829 3.50102 27.378 4.26002 27.323 4.90902H30.315C30.293 4.28202 29.864 3.50102 28.819 3.50102Z" fill="#0A0A0A"/>
<path d="M24.9539 8.00002H23.7989V4.67802C23.7989 3.85302 23.3809 3.57802 22.7319 3.57802C22.1379 3.57802 21.6319 3.93002 21.3679 4.29302V8.00002H20.2129V2.68702H21.3679V3.41302C21.7199 2.99502 22.4019 2.55502 23.2379 2.55502C24.3819 2.55502 24.9539 3.17102 24.9539 4.26002V8.00002Z" fill="#0A0A0A"/>
<path d="M17.3206 8.00001H16.0776L13.9106 2.68701H15.1426L16.6936 6.66901L18.2446 2.68701H19.4876L17.3206 8.00001Z" fill="#0A0A0A"/>
<path d="M8.22754 5.33802C8.22754 3.79802 9.34954 2.55502 10.9225 2.55502C12.5175 2.55502 13.5405 3.77602 13.5405 5.44802V5.72302H9.43754C9.52554 6.52602 10.1305 7.18602 11.1315 7.18602C11.6485 7.18602 12.2645 6.97702 12.6385 6.60302L13.1665 7.36202C12.6385 7.86802 11.8575 8.13202 11.0105 8.13202C9.41554 8.13202 8.22754 7.02102 8.22754 5.33802ZM10.9225 3.50102C9.93254 3.50102 9.48154 4.26002 9.42654 4.90902H12.4185C12.3965 4.28202 11.9675 3.50102 10.9225 3.50102Z" fill="#0A0A0A"/>
<path d="M3.50901 8.00003H0.781006V0.663025H3.50901C5.79701 0.663025 7.34801 2.18103 7.34801 4.33703C7.34801 6.49303 5.79701 8.00003 3.50901 8.00003ZM2.06801 1.79603V6.86703H3.50901C5.10401 6.86703 6.02801 5.72303 6.02801 4.33703C6.02801 2.91803 5.14801 1.79603 3.50901 1.79603H2.06801Z" fill="#0A0A0A"/>
<path d="M13.2503 16C5.93167 16 0 21.9274 0 29.2408C0 36.5542 5.93167 42.4816 13.2503 42.4816C20.5688 42.4816 26.5005 36.5542 26.5005 29.2408C26.5005 21.9274 20.5688 16 13.2503 16ZM13.2503 40.0395C7.29063 40.0395 2.44388 35.1943 2.44388 29.2408C2.44388 23.2873 7.29063 18.4421 13.2503 18.4421C19.2099 18.4421 24.0566 23.2873 24.0566 29.2408C24.0566 35.1943 19.208 40.0395 13.2503 40.0395Z" fill="#0A0A0A"/>
<path d="M14.4938 27.9977H12.0071V30.4827H14.4938V27.9977Z" fill="#0A0A0A"/>
<path d="M14.4938 24.073H12.0071V26.558H14.4938V24.073Z" fill="#0A0A0A"/>
<path d="M14.4938 20.1502H12.0071V22.6352H14.4938V20.1502Z" fill="#0A0A0A"/>
<path d="M49.4756 23.9655C48.7709 23.5967 47.9861 23.4141 47.1193 23.4141C46.2525 23.4141 45.4378 23.6023 44.7257 23.9786C44.1404 24.2878 43.6464 24.705 43.2438 25.2248C42.8709 24.6883 42.3956 24.2636 41.8177 23.9525C41.1466 23.593 40.401 23.4123 39.5845 23.4123C38.7176 23.4123 37.944 23.5967 37.2636 23.9637C36.8796 24.1704 36.5422 24.4275 36.2439 24.7274V23.6563H33.1252V35.4814H36.2439V28.4903C36.2439 28.0152 36.3502 27.611 36.5627 27.2757C36.7752 26.9404 37.053 26.6833 37.3978 26.5027C37.7408 26.3238 38.1342 26.2325 38.576 26.2325C39.2303 26.2325 39.7783 26.4281 40.2201 26.8212C40.6619 27.2142 40.8838 27.7694 40.8838 28.4903V35.4814H44.0025V28.4903C44.0025 28.0152 44.1087 27.611 44.3212 27.2757C44.5337 26.9404 44.8152 26.6833 45.1676 26.5027C45.5199 26.3238 45.9076 26.2325 46.3345 26.2325C46.972 26.2325 47.5126 26.4281 47.9544 26.8212C48.3962 27.2142 48.6181 27.7694 48.6181 28.4903V35.4814H51.761V27.9743C51.761 27.0093 51.5559 26.1916 51.1477 25.521C50.7376 24.8503 50.1821 24.3306 49.4774 23.9637L49.4756 23.9655Z" fill="#0A0A0A"/>
<path d="M56.3379 23.6603H53.2192V35.4854H56.3379V23.6603Z" fill="#0A0A0A"/>
<path d="M66.6153 24.7332C66.2984 24.4203 65.9349 24.1557 65.5229 23.9415C64.8443 23.5894 64.0707 23.4143 63.202 23.4143C62.1059 23.4143 61.1235 23.6844 60.2567 24.2247C59.3899 24.7649 58.7058 25.497 58.2062 26.4209C57.7066 27.3449 57.4568 28.4048 57.4568 29.5988C57.4568 30.7929 57.7066 31.8025 58.2062 32.7265C58.7058 33.6504 59.388 34.3825 60.2567 34.9227C61.1235 35.463 62.1059 35.7331 63.202 35.7331C64.0521 35.7331 64.8257 35.5486 65.5229 35.1817C65.9498 34.9563 66.3207 34.6806 66.6395 34.3564V35.4872H69.7321V17.7719H66.6134V24.7332H66.6153ZM65.3383 32.4173C64.8798 32.6948 64.3392 32.8345 63.7184 32.8345C63.1293 32.8345 62.6018 32.7004 62.1358 32.4303C61.6697 32.1602 61.3044 31.7765 61.0434 31.2772C60.7805 30.778 60.65 30.2098 60.65 29.5728C60.65 28.9357 60.7805 28.3508 61.0434 27.8683C61.3044 27.3858 61.6697 27.0021 62.1358 26.7152C62.6018 26.4284 63.1387 26.2868 63.7445 26.2868C64.3504 26.2868 64.8816 26.4302 65.3402 26.7152C65.7988 27.0021 66.1586 27.3858 66.4195 27.8683C66.6805 28.3508 66.8129 28.9189 66.8129 29.5728C66.8129 30.2266 66.6824 30.7743 66.4195 31.2661C66.1567 31.756 65.7969 32.1416 65.3402 32.4191L65.3383 32.4173Z" fill="#0A0A0A"/>
<path d="M80.126 24.0646C79.4382 23.6306 78.6608 23.4145 77.794 23.4145C76.9272 23.4145 76.0921 23.6101 75.3874 24.0031C74.9866 24.2267 74.6362 24.5005 74.3323 24.8209V23.6604H71.2136V35.4854H74.3323V28.6899C74.3323 28.2149 74.4386 27.7902 74.6511 27.4139C74.8636 27.0376 75.1544 26.747 75.5235 26.5421C75.8926 26.3372 76.312 26.2348 76.7874 26.2348C77.4902 26.2348 78.0718 26.4639 78.5303 26.9221C78.9889 27.3804 79.2182 27.969 79.2182 28.6881V35.4836H82.3369V28.0007C82.3369 27.2165 82.1412 26.4713 81.7478 25.7691C81.3545 25.0668 80.8158 24.4968 80.1279 24.0646H80.126Z" fill="#0A0A0A"/>
<path d="M86.8894 23.6603H83.7708V35.4854H86.8894V23.6603Z" fill="#0A0A0A"/>
<path d="M97.168 24.6998C96.8641 24.4036 96.5081 24.1503 96.0998 23.9435C95.4045 23.5914 94.6141 23.4163 93.7305 23.4163C92.6829 23.4163 91.734 23.6734 90.8821 24.1894C90.0302 24.7054 89.3628 25.4039 88.8819 26.2869C88.3991 27.1699 88.1567 28.1683 88.1567 29.2804C88.1567 30.3925 88.3972 31.3947 88.8819 32.2851C89.3647 33.1774 90.0321 33.8834 90.8821 34.4069C91.7321 34.9303 92.6903 35.1911 93.7547 35.1911C94.6216 35.1911 95.3989 35.016 96.0868 34.6639C96.4876 34.459 96.838 34.2057 97.1419 33.9095V34.9471C97.1419 35.8468 96.8511 36.5547 96.2694 37.0688C95.6878 37.5848 94.8825 37.8419 93.8517 37.8419C93.0501 37.8419 92.3622 37.6984 91.7899 37.4116C91.2176 37.1247 90.7013 36.7037 90.2427 36.1486L88.2537 38.1362C88.826 38.954 89.5921 39.5873 90.5484 40.0381C91.5066 40.487 92.6232 40.7124 93.9001 40.7124C95.1771 40.7124 96.2452 40.4703 97.2015 39.9878C98.1597 39.5054 98.9072 38.831 99.4478 37.9629C99.9884 37.0967 100.259 36.0815 100.259 34.921V23.6603H97.1661V24.6998H97.168ZM95.9283 31.9405C95.4772 32.1938 94.9496 32.3205 94.3457 32.3205C93.7417 32.3205 93.2365 32.1901 92.7872 31.9275C92.3361 31.6667 91.9857 31.3053 91.7321 30.8489C91.4786 30.3907 91.3519 29.8765 91.3519 29.3028C91.3519 28.6974 91.4786 28.1702 91.7321 27.7194C91.9857 27.2705 92.338 26.9147 92.7872 26.652C93.2365 26.3912 93.7659 26.259 94.3718 26.259C94.9776 26.259 95.4809 26.3894 95.9302 26.652C96.3794 26.9147 96.728 27.2705 96.9741 27.7194C97.2202 28.1702 97.3432 28.6974 97.3432 29.3028C97.3432 29.9082 97.2202 30.4149 96.9741 30.8731C96.728 31.3314 96.3813 31.6872 95.9302 31.9405H95.9283Z" fill="#0A0A0A"/>
<path d="M110.517 23.9918C109.821 23.6081 109.023 23.4143 108.123 23.4143C107.223 23.4143 106.425 23.6099 105.729 24.003C105.344 24.2209 105.006 24.4855 104.71 24.7965V17.7719H101.591V35.4853H104.71V28.6898C104.71 28.2148 104.816 27.7901 105.029 27.4138C105.241 27.0375 105.532 26.7469 105.901 26.542C106.27 26.3371 106.689 26.2346 107.165 26.2346C107.868 26.2346 108.449 26.4637 108.908 26.922C109.366 27.3802 109.596 27.9689 109.596 28.6879V35.4834H112.714V28.0006C112.714 27.1008 112.522 26.3035 112.138 25.6087C111.754 24.9139 111.214 24.3737 110.518 23.9899L110.517 23.9918Z" fill="#0A0A0A"/>
<path d="M122.338 23.6598H119.564V18.729H116.446V23.6598H113.648V26.3833H116.446V35.4849H119.564V26.3833H122.338V23.6598Z" fill="#0A0A0A"/>
<path d="M54.7655 21.6722C55.7415 21.6722 56.5327 20.8816 56.5327 19.9063C56.5327 18.931 55.7415 18.1404 54.7655 18.1404C53.7895 18.1404 52.9983 18.931 52.9983 19.9063C52.9983 20.8816 53.7895 21.6722 54.7655 21.6722Z" fill="#0A0A0A"/>
<path d="M85.3292 21.6722C86.3052 21.6722 87.0964 20.8816 87.0964 19.9063C87.0964 18.931 86.3052 18.1404 85.3292 18.1404C84.3532 18.1404 83.562 18.931 83.562 19.9063C83.562 20.8816 84.3532 21.6722 85.3292 21.6722Z" fill="#0A0A0A"/>
</svg>
